<?xml version="1.0" encoding="utf-8"?>
<?xml-stylesheet type="text/xsl" href="rss1.xsl"?>
<rss version="2.0" xmlns:atom="http://www.w3.org/2005/Atom" xmlns:content="http://purl.org/rss/1.0/modules/content/" xmlns:dc="http://purl.org/dc/elements/1.1/" xmlns:media="http://search.yahoo.com/mrss/">
<channel>
 <title>Getty</title>
 <link>http://www.gettyimg.com/</link>
 <atom:link href="http://www.gettyimg.com/" rel="self" type="application/rss+xml" />

 
                <item>
                <title><![CDATA[【Bugs!】LOONA - «Paint The Town» [Bugs! 2160p]]]></title>
                <link><![CDATA[https://sharemania.us/threads/loona-%C2%ABpaint-the-town%C2%BB-bugs-2160p.228203/]]></link>
                <description><![CDATA[<article>
<blockquote class="messageText SelectQuoteContainer ugc baseHtml">
<div style="text-align: center"><img src="https://i.imgur.com/DOPTT98.jpg" class="bbCodeImage LbImage" alt="[​IMG]" data-url="https://i.imgur.com/DOPTT98.jpg" style=""><br>
<img src="https://i.imgur.com/4KcsMjj.jpg" class="bbCodeImage LbImage" alt="[​IMG]" data-url="https://i.imgur.com/4KcsMjj.jpg" style=""><br>
<div class="ToggleTriggerAnchor bbCodeSpoilerContainer">
<button type="button" class="button bbCodeSpoilerButton ToggleTrigger Tooltip JsOnly" data-target="> .SpoilerTarget"><span>Spoiler: <span class="SpoilerTitle">Media Info</span></span></button>
<div class="SpoilerTarget bbCodeSpoilerText">
<div class="bbCodeBlock bbCodeQuote">
<aside>
<blockquote class="quoteContainer"><div class="quote">General<br>
Complete name : LOONA - PTT (Paint The Town) (Bugs!).mp4<br>
Format : MPEG-4<br>
Format profile : Base Media / Version 2<br>
Codec ID : mp42 (mp42/mp41)<br>
File size : 1.61 GiB<br>
Duration : 3 min 49 s<br>
Overall bit rate mode : Variable<br>
Overall bit rate : 60.4 Mb/s<br>
Encoded date : UTC 2021-06-24 17:38:13<br>
Tagged date : UTC 2021-06-24 17:38:22<br>
TIM : 01:00:00:00<br>
TSC : 24000<br>
TSZ : 1001<br>
<br>
Video<br>
ID : 1<br>
Format : AVC<br>
Format/Info : Advanced Video Codec<br>
Format profile : High@L5.2<br>
Format settings : CABAC / 1 Ref Frames<br>
Format settings, CABAC : Yes<br>
Format settings, Reference fra : 1 frame<br>
Format settings, GOP : M=1, N=30<br>
Codec ID : avc1<br>
Codec ID/Info : Advanced Video Coding<br>
Duration : 3 min 49 s<br>
Bit rate : 60.0 Mb/s<br>
Width : 3 840 pixels<br>
Height : 2 160 pixels<br>
Display aspect ratio : 16:9<br>
Frame rate mode : Constant<br>
Frame rate : 23.976 (24000/1001) FPS<br>
Color space : YUV<br>
Chroma subsampling : 4:2:0<br>
Bit depth : 8 bits<br>
Scan type : Progressive<br>
Bits/(Pixel*Frame) : 0.302<br>
Stream size : 1.60 GiB (99%)<br>
Language : English<br>
Encoded date : UTC 2021-06-24 17:38:13<br>
Tagged date : UTC 2021-06-24 17:38:13<br>
Codec configuration box : avcC<br>
<br>
Audio<br>
ID : 2<br>
Format : AAC LC<br>
Format/Info : Advanced Audio Codec Low Complexity<br>
Codec ID : mp4a-40-2<br>
Duration : 3 min 49 s<br>
Source duration : 3 min 49 s<br>
Bit rate mode : Variable<br>
Bit rate : 317 kb/s<br>
Maximum bit rate : 414 kb/s<br>
Channel(s) : 2 channels<br>
Channel layout : L R<br>
Sampling rate : 48.0 kHz<br>
Frame rate : 46.875 FPS (1024 SPF)<br>
Compression mode : Lossy<br>
Stream size : 8.68 MiB (1%)<br>
Source stream size : 8.68 MiB (1%)<br>
Language : English<br>
Encoded date : UTC 2021-06-24 17:38:13<br>
Tagged date : UTC 2021-06-24 17:38:13</div><div class="quoteExpand">Click to expand...</div></blockquote>
</aside>
</div></div>
</div><b><span style="font-family: 'Book Antiqua'"><span style="font-size: 26px">
<div class="ToggleTriggerAnchor bbCodeSpoilerContainer">
<button type="button" class="button bbCodeSpoilerButton ToggleTrigger Tooltip JsOnly" data-target="> .SpoilerTarget"><span>Spoiler: <span class="SpoilerTitle">Credits</span></span></button>
<div class="SpoilerTarget bbCodeSpoilerText"><span style="color: rgb(179, 179, 0)">Original Uploader</span> - <span style="color: rgb(0, 255, 0)">Glorious60</span> from <span style="color: rgb(0, 128, 255)">Jpopsuki</span></div>
</div></span></span></b><span style="font-family: 'Book Antiqua'"><span style="font-size: 15px"><span data-s9e-mediaembed="youtube" style="display:inline-block;width:100%;max-width:640px"><span style="display:block;overflow:hidden;position:relative;padding-bottom:56.25%"><iframe allowfullscreen="" loading="lazy" scrolling="no" style="background:url(https://i.ytimg.com/vi/_EEo-iE5u_A/hqdefault.jpg) 50% 50% / cover;border:0;height:100%;left:0;position:absolute;width:100%" src="https://www.youtube.com/embed/_EEo-iE5u_A"></iframe></span></span><br>
<div class="ToggleTriggerAnchor bbCodeSpoilerContainer">
<button type="button" class="button bbCodeSpoilerButton ToggleTrigger Tooltip JsOnly" data-target="> .SpoilerTarget"><span>Spoiler: <span class="SpoilerTitle">Google Drive</span></span></button>
<div class="SpoilerTarget bbCodeSpoilerText"><a href="https://drive.google.com/drive/folders/14us6PcQAJyx0Klajkv2FoSF-ku3kRM91?usp=sharing" target="_blank" class="externalLink" rel="nofollow">https://drive.google.com/drive/folders/14us6PcQAJyx0Klajkv2FoSF-ku3kRM91?usp=sharing</a></div>
</div></span></span>​</div>
<div class="messageTextEndMarker">&nbsp;</div>
</blockquote>
</article>]]></description>
                <author><![CDATA[WithLoveSNSD]]></author>
                </item>

                
                <item>
                <title><![CDATA[【Bugs!】Ive - «Eleven» [Bugs! 2160p]]]></title>
                <link><![CDATA[https://sharemania.us/threads/ive-%C2%ABeleven%C2%BB-bugs-2160p.228202/]]></link>
                <description><![CDATA[<article>
<blockquote class="messageText SelectQuoteContainer ugc baseHtml">
<div style="text-align: center"><img src="https://i.imgur.com/5Hb7xRe.jpg" class="bbCodeImage LbImage" alt="[​IMG]" data-url="https://i.imgur.com/5Hb7xRe.jpg" style=""> <br>
<br>
<img src="https://i.imgur.com/qZqd36x.jpg" class="bbCodeImage LbImage" alt="[​IMG]" data-url="https://i.imgur.com/qZqd36x.jpg" style=""> <br>
<div class="ToggleTriggerAnchor bbCodeSpoilerContainer">
<button type="button" class="button bbCodeSpoilerButton ToggleTrigger Tooltip JsOnly" data-target="> .SpoilerTarget"><span>Spoiler: <span class="SpoilerTitle">Media Info</span></span></button>
<div class="SpoilerTarget bbCodeSpoilerText">
<div class="bbCodeBlock bbCodeQuote">
<aside>
<blockquote class="quoteContainer"><div class="quote">General<br>
Complete name : IVE - ELEVEN (Bugs!).mp4<br>
Format : MPEG-4<br>
Format profile : Base Media / Version 2<br>
Codec ID : mp42 (mp42/mp41)<br>
File size : 1.02 GiB<br>
Duration : 3 min 3 s<br>
Overall bit rate mode : Variable<br>
Overall bit rate : 47.8 Mb/s<br>
Encoded date : UTC 2021-11-30 14:33:56<br>
Tagged date : UTC 2021-11-30 14:38:11<br>
TIM : 00:00:00:00<br>
TSC : 24<br>
TSZ : 1<br>
<br>
Video<br>
ID : 1<br>
Format : AVC<br>
Format/Info : Advanced Video Codec<br>
Format profile : High@L5.2<br>
Format settings : CABAC / 4 Ref Frames<br>
Format settings, CABAC : Yes<br>
Format settings, Reference fra : 4 frames<br>
Codec ID : avc1<br>
Codec ID/Info : Advanced Video Coding<br>
Duration : 3 min 3 s<br>
Bit rate : 47.5 Mb/s<br>
Width : 3 840 pixels<br>
Height : 2 160 pixels<br>
Display aspect ratio : 16:9<br>
Frame rate mode : Constant<br>
Frame rate : 24.000 FPS<br>
Color space : YUV<br>
Chroma subsampling : 4:2:0<br>
Bit depth : 8 bits<br>
Scan type : Progressive<br>
Bits/(Pixel*Frame) : 0.239<br>
Stream size : 1.01 GiB (99%)<br>
Language : English<br>
Encoded date : UTC 2021-11-30 14:34:01<br>
Tagged date : UTC 2021-11-30 14:34:01<br>
Color range : Limited<br>
Color primaries : BT.709<br>
Transfer characteristics : BT.709<br>
Matrix coefficients : BT.709<br>
Codec configuration box : avcC<br>
<br>
Audio<br>
ID : 2<br>
Format : AAC LC<br>
Format/Info : Advanced Audio Codec Low Complexity<br>
Codec ID : mp4a-40-2<br>
Duration : 3 min 3 s<br>
Source duration : 3 min 3 s<br>
Bit rate mode : Variable<br>
Bit rate : 317 kb/s<br>
Maximum bit rate : 462 kb/s<br>
Channel(s) : 2 channels<br>
Channel layout : L R<br>
Sampling rate : 48.0 kHz<br>
Frame rate : 46.875 FPS (1024 SPF)<br>
Compression mode : Lossy<br>
Stream size : 6.94 MiB (1%)<br>
Source stream size : 6.94 MiB (1%)<br>
Language : English<br>
Encoded date : UTC 2021-11-30 14:34:00<br>
Tagged date : UTC 2021-11-30 14:34:00</div><div class="quoteExpand">Click to expand...</div></blockquote>
</aside>
</div></div>
</div><b><span style="font-family: 'Book Antiqua'"><span style="font-size: 26px">
<div class="ToggleTriggerAnchor bbCodeSpoilerContainer">
<button type="button" class="button bbCodeSpoilerButton ToggleTrigger Tooltip JsOnly" data-target="> .SpoilerTarget"><span>Spoiler: <span class="SpoilerTitle">Credits</span></span></button>
<div class="SpoilerTarget bbCodeSpoilerText"><span style="color: rgb(179, 179, 0)">Original Uploader</span> - <span style="color: rgb(0, 255, 0)">Glorious60</span> from <span style="color: rgb(0, 128, 255)">Jpopsuki</span></div>
</div></span></span></b><span style="font-family: 'Book Antiqua'"><span style="font-size: 15px"><span data-s9e-mediaembed="youtube" style="display:inline-block;width:100%;max-width:640px"><span style="display:block;overflow:hidden;position:relative;padding-bottom:56.25%"><iframe allowfullscreen="" loading="lazy" scrolling="no" style="background:url(https://i.ytimg.com/vi/--FmExEAsM8/hqdefault.jpg) 50% 50% / cover;border:0;height:100%;left:0;position:absolute;width:100%" src="https://www.youtube.com/embed/--FmExEAsM8"></iframe></span></span><br>
<br>
<div class="ToggleTriggerAnchor bbCodeSpoilerContainer">
<button type="button" class="button bbCodeSpoilerButton ToggleTrigger Tooltip JsOnly" data-target="> .SpoilerTarget"><span>Spoiler: <span class="SpoilerTitle">Google Drive</span></span></button>
<div class="SpoilerTarget bbCodeSpoilerText"><a href="https://drive.google.com/drive/folders/1s3aG-lZjE3aGA7fZhC2i7-iAKyXDjBGl?usp=sharing" target="_blank" class="externalLink" rel="nofollow">https://drive.google.com/drive/folders/1s3aG-lZjE3aGA7fZhC2i7-iAKyXDjBGl?usp=sharing</a></div>
</div></span></span>​</div>
<div class="messageTextEndMarker">&nbsp;</div>
</blockquote>
</article>]]></description>
                <author><![CDATA[WithLoveSNSD]]></author>
                </item>

                </channel></rss>